<?xml version="1.0" encoding="UTF-8"?>
<!DOCTYPE svg PUBLIC "-//W3C//DTD SVG 1.1//EN" "http://www.w3.org/Graphics/SVG/1.1/DTD/svg11.dtd">
<svg version="1.2" width="250mm" height="250mm" viewBox="0 0 25000 25000" preserveAspectRatio="xMidYMid" fill-rule="evenodd" stroke-width="28.222" stroke-linejoin="round" xmlns="http://www.w3.org/2000/svg" xmlns:ooo="http://xml.openoffice.org/svg/export" xmlns:xlink="http://www.w3.org/1999/xlink" xmlns:presentation="http://sun.com/xmlns/staroffice/presentation" xmlns:smil="http://www.w3.org/2001/SMIL20/" xmlns:anim="urn:oasis:names:tc:opendocument:xmlns:animation:1.0" xmlns:svg="urn:oasis:names:tc:opendocument:xmlns:svg-compatible:1.0" xml:space="preserve">
 <defs class="ClipPathGroup">
  <clipPath id="presentation_clip_path" clipPathUnits="userSpaceOnUse">
   <rect x="0" y="0" width="25000" height="25000"/>
  </clipPath>
  <clipPath id="presentation_clip_path_shrink" clipPathUnits="userSpaceOnUse">
   <rect x="25" y="25" width="24950" height="24950"/>
  </clipPath>
 </defs>
 <defs class="TextShapeIndex">
  <g ooo:slide="id1" ooo:id-list="id3 id4 id5 id6 id7 id8 id9 id10 id11 id12 id13 id14 id15 id16 id17 id18 id19"/>
 </defs>
 <defs class="EmbeddedBulletChars">
  <g id="bullet-char-template-57356" transform="scale(0.00048828125,-0.00048828125)">
   <path d="M 580,1141 L 1163,571 580,0 -4,571 580,1141 Z"/>
  </g>
  <g id="bullet-char-template-57354" transform="scale(0.00048828125,-0.00048828125)">
   <path d="M 8,1128 L 1137,1128 1137,0 8,0 8,1128 Z"/>
  </g>
  <g id="bullet-char-template-10146" transform="scale(0.00048828125,-0.00048828125)">
   <path d="M 174,0 L 602,739 174,1481 1456,739 174,0 Z M 1358,739 L 309,1346 659,739 1358,739 Z"/>
  </g>
  <g id="bullet-char-template-10132" transform="scale(0.00048828125,-0.00048828125)">
   <path d="M 2015,739 L 1276,0 717,0 1260,543 174,543 174,936 1260,936 717,1481 1274,1481 2015,739 Z"/>
  </g>
  <g id="bullet-char-template-10007" transform="scale(0.00048828125,-0.00048828125)">
   <path d="M 0,-2 C -7,14 -16,27 -25,37 L 356,567 C 262,823 215,952 215,954 215,979 228,992 255,992 264,992 276,990 289,987 310,991 331,999 354,1012 L 381,999 492,748 772,1049 836,1024 860,1049 C 881,1039 901,1025 922,1006 886,937 835,863 770,784 769,783 710,716 594,584 L 774,223 C 774,196 753,168 711,139 L 727,119 C 717,90 699,76 672,76 641,76 570,178 457,381 L 164,-76 C 142,-110 111,-127 72,-127 30,-127 9,-110 8,-76 1,-67 -2,-52 -2,-32 -2,-23 -1,-13 0,-2 Z"/>
  </g>
  <g id="bullet-char-template-10004" transform="scale(0.00048828125,-0.00048828125)">
   <path d="M 285,-33 C 182,-33 111,30 74,156 52,228 41,333 41,471 41,549 55,616 82,672 116,743 169,778 240,778 293,778 328,747 346,684 L 369,508 C 377,444 397,411 428,410 L 1163,1116 C 1174,1127 1196,1133 1229,1133 1271,1133 1292,1118 1292,1087 L 1292,965 C 1292,929 1282,901 1262,881 L 442,47 C 390,-6 338,-33 285,-33 Z"/>
  </g>
  <g id="bullet-char-template-9679" transform="scale(0.00048828125,-0.00048828125)">
   <path d="M 813,0 C 632,0 489,54 383,161 276,268 223,411 223,592 223,773 276,916 383,1023 489,1130 632,1184 813,1184 992,1184 1136,1130 1245,1023 1353,916 1407,772 1407,592 1407,412 1353,268 1245,161 1136,54 992,0 813,0 Z"/>
  </g>
  <g id="bullet-char-template-8226" transform="scale(0.00048828125,-0.00048828125)">
   <path d="M 346,457 C 273,457 209,483 155,535 101,586 74,649 74,723 74,796 101,859 155,911 209,963 273,989 346,989 419,989 480,963 531,910 582,859 608,796 608,723 608,648 583,586 532,535 482,483 420,457 346,457 Z"/>
  </g>
  <g id="bullet-char-template-8211" transform="scale(0.00048828125,-0.00048828125)">
   <path d="M -4,459 L 1135,459 1135,606 -4,606 -4,459 Z"/>
  </g>
  <g id="bullet-char-template-61548" transform="scale(0.00048828125,-0.00048828125)">
   <path d="M 173,740 C 173,903 231,1043 346,1159 462,1274 601,1332 765,1332 928,1332 1067,1274 1183,1159 1299,1043 1357,903 1357,740 1357,577 1299,437 1183,322 1067,206 928,148 765,148 601,148 462,206 346,322 231,437 173,577 173,740 Z"/>
  </g>
 </defs>
 <g>
  <g id="id2" class="Master_Slide">
   <g id="bg-id2" class="Background"/>
   <g id="bo-id2" class="BackgroundObjects"/>
  </g>
 </g>
 <g class="SlideGroup">
  <g>
   <g id="container-id1">
    <g id="id1" class="Slide" clip-path="url(#presentation_clip_path)">
     <g class="Page">
      <g class="com.sun.star.drawing.ClosedBezierShape">
       <g id="id3">
        <rect class="BoundingBox" stroke="none" fill="none" x="15432" y="1595" width="6995" height="19410"/>
        <path fill="rgb(255,255,255)" stroke="none" d="M 15432,21003 C 15510,20748 15580,20515 15654,20281 15828,19724 16007,19168 16179,18610 16247,18392 16415,18246 16549,18078 17210,17246 17790,16361 18303,15432 18868,14406 19330,13334 19700,12223 20067,11120 20335,9993 20525,8847 20637,8163 20715,7475 20766,6785 20833,5864 20834,4941 20815,4019 20809,3750 20783,3481 20771,3211 20768,3134 20735,3097 20663,3076 19820,2832 18975,2595 18114,2417 17883,2369 17652,2315 17389,2258 17535,2197 17661,2197 17782,2180 19138,1986 20493,1794 21848,1602 21992,1581 22129,1615 22266,1650 22327,1666 22343,1710 22348,1768 22430,2773 22438,3780 22412,4786 22397,5436 22353,6087 22280,6735 22225,7227 22163,7716 22089,8206 21987,8882 21850,9552 21687,10215 21488,11028 21241,11827 20960,12615 20767,13158 20535,13684 20320,14217 20240,14414 20122,14596 20050,14796 19873,15288 19609,15734 19350,16183 18875,17007 18348,17797 17764,18549 17393,19026 17005,19487 16599,19935 16350,20210 16079,20463 15824,20731 15719,20842 15606,20940 15432,21003 Z"/>
       </g>
      </g>
      <g class="com.sun.star.drawing.ClosedBezierShape">
       <g id="id4">
        <rect class="BoundingBox" stroke="none" fill="none" x="2757" y="173" width="15222" height="6096"/>
        <path fill="rgb(255,255,255)" stroke="none" d="M 17977,721 C 17940,762 17917,789 17892,814 17493,1214 17093,1611 16696,2013 16627,2083 16561,2105 16460,2087 15930,1993 15395,1935 14858,1884 14205,1824 13550,1792 12894,1786 12299,1780 11705,1803 11111,1829 10580,1852 10054,1920 9526,1963 9214,1989 8904,2042 8594,2090 8162,2157 7728,2216 7300,2305 6614,2446 5930,2595 5252,2776 4973,2852 4692,2926 4413,3002 4243,3048 4242,3061 4230,3233 4169,4101 4184,4971 4182,5840 4182,5982 4223,6120 4183,6267 4145,6153 4106,6038 4068,5923 3717,4855 3367,3787 3016,2719 2939,2482 2863,2244 2785,2006 2765,1944 2759,1881 2758,1816 2756,1730 2796,1686 2879,1663 3628,1455 4374,1242 5130,1065 5848,897 6568,745 7294,620 7775,538 8256,460 8739,400 9193,343 9649,296 10107,264 10673,224 11240,211 11806,185 12407,157 13006,186 13604,204 14330,228 15057,293 15779,383 16494,472 17208,570 17916,702 17931,705 17945,711 17977,721 Z"/>
       </g>
      </g>
      <g class="com.sun.star.drawing.ClosedBezierShape">
       <g id="id5">
        <rect class="BoundingBox" stroke="none" fill="none" x="2728" y="5973" width="12426" height="17339"/>
        <path fill="rgb(255,255,255)" stroke="none" d="M 15152,19703 C 14918,20041 14685,20379 14452,20716 13921,21481 13390,22245 12858,23010 12815,23072 12772,23136 12724,23196 12615,23331 12525,23345 12381,23246 11881,22900 11396,22534 10921,22153 10159,21543 9448,20877 8775,20171 8404,19781 8049,19374 7708,18955 7294,18445 6903,17918 6535,17375 6235,16931 5953,16475 5689,16009 5418,15528 5161,15041 4923,14543 4685,14041 4472,13528 4269,13010 4055,12463 3873,11905 3701,11343 3552,10862 3428,10375 3313,9887 3194,9386 3097,8881 3012,8374 2925,7847 2845,7318 2803,6784 2785,6552 2756,6321 2735,6088 2731,6051 2715,5998 2758,5978 2803,5957 2827,6009 2853,6035 3310,6490 3764,6948 4223,7401 4344,7520 4337,7672 4352,7816 4394,8238 4461,8655 4530,9072 4602,9501 4688,9926 4787,10350 4956,11076 5164,11791 5409,12495 5723,13399 6102,14274 6545,15122 7115,16210 7785,17233 8556,18190 9040,18789 9556,19360 10116,19888 10489,20241 10870,20588 11272,20911 11639,21207 12021,21481 12397,21764 12503,21844 12581,21836 12686,21759 13438,21198 14173,20615 14841,19952 14934,19859 15036,19775 15135,19687 15140,19692 15146,19698 15152,19703 Z"/>
       </g>
      </g>
      <g class="com.sun.star.drawing.ClosedBezierShape">
       <g id="id6">
        <rect class="BoundingBox" stroke="none" fill="none" x="8409" y="5264" width="11670" height="6264"/>
        <path fill="rgb(255,255,255)" stroke="none" d="M 8410,5350 C 8641,5339 8853,5325 9065,5320 9621,5307 10177,5308 10733,5286 11474,5257 12215,5274 12956,5265 13054,5264 13148,5280 13241,5310 14185,5610 15130,5909 16076,6205 16163,6233 16234,6275 16297,6343 16662,6740 17031,7135 17396,7532 17450,7590 17512,7631 17583,7662 17965,7834 18346,8008 18729,8180 18789,8207 18837,8245 18875,8301 19259,8877 19645,9454 20031,10030 20068,10085 20092,10142 20067,10211 19911,10634 19757,11058 19601,11482 19595,11499 19590,11521 19549,11527 19630,11256 19709,10991 19788,10727 19838,10561 19887,10394 19940,10230 19959,10170 19950,10123 19914,10073 19520,9532 19128,8990 18737,8447 18699,8394 18647,8368 18592,8344 18243,8195 17899,8035 17545,7900 17336,7821 17203,7666 17060,7514 16744,7181 16429,6847 16114,6512 16077,6472 16029,6454 15979,6438 15013,6124 14048,5810 13082,5495 13024,5476 12965,5471 12904,5471 12058,5461 11212,5454 10366,5440 9750,5430 9134,5409 8518,5393 8488,5392 8453,5401 8410,5350 Z"/>
       </g>
      </g>
      <g class="com.sun.star.drawing.ClosedBezierShape">
       <g id="id7">
        <rect class="BoundingBox" stroke="none" fill="none" x="13561" y="7055" width="2979" height="1385"/>
        <path fill="rgb(255,255,255)" stroke="none" d="M 16513,8439 C 16253,8394 15993,8348 15733,8303 15226,8214 14719,8124 14212,8038 14143,8026 14095,7997 14058,7937 13904,7687 13748,7438 13590,7190 13543,7116 13549,7082 13644,7080 13907,7074 14168,7065 14429,7056 14491,7054 14546,7065 14600,7102 15230,7528 15861,7952 16492,8377 16505,8386 16523,8389 16538,8394 16530,8409 16522,8424 16513,8439 Z"/>
       </g>
      </g>
      <g class="com.sun.star.drawing.ClosedBezierShape">
       <g id="id8">
        <rect class="BoundingBox" stroke="none" fill="none" x="10672" y="10657" width="6422" height="4027"/>
        <path fill="rgb(255,255,255)" stroke="none" d="M 10673,14662 C 10831,14471 10988,14279 11148,14091 11833,13287 12542,12505 13258,11730 13357,11623 13466,11555 13610,11516 14725,11212 15843,10921 16973,10675 17012,10666 17049,10650 17092,10662 17090,10707 17051,10705 17025,10714 15907,11096 14781,11447 13645,11766 13553,11792 13490,11846 13429,11912 12698,12706 11942,13478 11172,14235 11017,14386 10858,14534 10700,14682 10691,14675 10682,14669 10673,14662 Z"/>
       </g>
      </g>
      <g class="com.sun.star.drawing.ClosedBezierShape">
       <g id="id9">
        <rect class="BoundingBox" stroke="none" fill="none" x="15540" y="9678" width="3948" height="1308"/>
        <path fill="rgb(255,255,255)" stroke="none" d="M 15541,9694 C 15632,9660 15712,9692 15790,9692 16475,9690 17155,9769 17834,9842 17916,9851 17988,9887 18062,9919 18455,10086 18840,10270 19224,10455 19328,10505 19392,10571 19411,10686 19426,10775 19455,10863 19487,10985 19390,10904 19370,10817 19335,10743 19296,10660 19241,10610 19153,10581 18742,10451 18341,10294 17941,10135 17762,10063 17570,10069 17383,10045 16805,9968 16229,9877 15659,9752 15621,9743 15579,9740 15541,9694 Z"/>
       </g>
      </g>
      <g class="com.sun.star.drawing.ClosedBezierShape">
       <g id="id10">
        <rect class="BoundingBox" stroke="none" fill="none" x="4979" y="8352" width="3563" height="1390"/>
        <path fill="rgb(255,255,255)" stroke="none" d="M 5635,9053 C 6402,9267 7163,9496 7954,9740 7785,9757 5203,9133 4979,9025 6181,8760 7355,8531 8540,8353 7582,8620 6612,8835 5635,9053 Z"/>
       </g>
      </g>
      <g class="com.sun.star.drawing.ClosedBezierShape">
       <g id="id11">
        <rect class="BoundingBox" stroke="none" fill="none" x="6165" y="12098" width="2906" height="1740"/>
        <path fill="rgb(255,255,255)" stroke="none" d="M 6165,13836 C 6766,13224 7396,12647 8054,12098 7627,12578 7179,13035 6730,13499 7510,13284 8283,13054 9070,12875 8119,13242 7150,13558 6165,13836 Z"/>
       </g>
      </g>
      <g class="com.sun.star.drawing.ClosedBezierShape">
       <g id="id12">
        <rect class="BoundingBox" stroke="none" fill="none" x="5995" y="7010" width="2337" height="822"/>
        <path fill="rgb(255,255,255)" stroke="none" d="M 6601,7178 C 7005,7396 7421,7587 7810,7830 7189,7617 6590,7351 5995,7061 6775,6988 7553,7009 8331,7030 7758,7115 7181,7152 6601,7178 Z"/>
       </g>
      </g>
      <g class="com.sun.star.drawing.ClosedBezierShape">
       <g id="id13">
        <rect class="BoundingBox" stroke="none" fill="none" x="17140" y="10380" width="2154" height="697"/>
        <path fill="rgb(255,255,255)" stroke="none" d="M 19292,10944 C 19248,10997 19182,10984 19125,10994 18792,11055 18453,11065 18116,11075 18058,11077 18004,11067 17954,11035 17683,10859 17425,10668 17186,10451 17169,10436 17157,10416 17140,10396 17189,10361 17224,10394 17258,10407 17443,10476 17627,10552 17790,10661 17996,10800 18221,10826 18455,10826 18714,10827 18968,10867 19223,10904 19249,10909 19280,10907 19292,10944 Z"/>
       </g>
      </g>
      <g class="com.sun.star.drawing.ClosedBezierShape">
       <g id="id14">
        <rect class="BoundingBox" stroke="none" fill="none" x="6140" y="10610" width="2333" height="809"/>
        <path fill="rgb(255,255,255)" stroke="none" d="M 7925,10611 C 7544,10846 7139,11038 6712,11256 7322,11286 7899,11316 8472,11399 7695,11416 6920,11441 6141,11371 6719,11073 7318,10833 7925,10611 Z"/>
       </g>
      </g>
      <g class="com.sun.star.drawing.ClosedBezierShape">
       <g id="id15">
        <rect class="BoundingBox" stroke="none" fill="none" x="6974" y="5526" width="1938" height="748"/>
        <path fill="rgb(255,255,255)" stroke="none" d="M 8432,6272 C 7929,6064 7448,5810 6974,5528 7624,5519 8268,5566 8911,5643 8911,5655 8911,5667 8911,5679 L 7590,5679 C 7588,5690 7585,5701 7583,5712 7870,5892 8163,6062 8432,6272 Z"/>
       </g>
      </g>
      <g class="com.sun.star.drawing.ClosedBezierShape">
       <g id="id16">
        <rect class="BoundingBox" stroke="none" fill="none" x="9571" y="8889" width="1612" height="581"/>
        <path fill="rgb(255,255,255)" stroke="none" d="M 11182,9469 C 10636,9439 10103,9339 9571,9208 10012,9056 10460,8947 10921,8889 10683,9013 10428,9085 10153,9184 10516,9268 10857,9339 11182,9469 Z"/>
       </g>
      </g>
      <g class="com.sun.star.drawing.ClosedBezierShape">
       <g id="id17">
        <rect class="BoundingBox" stroke="none" fill="none" x="9716" y="6870" width="1167" height="861"/>
        <path fill="rgb(255,255,255)" stroke="none" d="M 9717,6870 C 10117,6930 10505,7032 10881,7183 10674,7199 10474,7149 10245,7123 10469,7328 10687,7507 10864,7729 10445,7494 10078,7190 9717,6870 Z"/>
       </g>
      </g>
      <g class="com.sun.star.drawing.ClosedBezierShape">
       <g id="id18">
        <rect class="BoundingBox" stroke="none" fill="none" x="10707" y="10584" width="1146" height="972"/>
        <path fill="rgb(255,255,255)" stroke="none" d="M 11225,11244 C 11452,11192 11646,11147 11839,11102 11843,11115 11847,11128 11851,11141 11486,11316 11103,11449 10708,11555 11037,11200 11382,10869 11773,10585 11629,10821 11430,11009 11225,11244 Z"/>
       </g>
      </g>
      <g class="com.sun.star.drawing.ClosedBezierShape">
       <g id="id19">
        <rect class="BoundingBox" stroke="none" fill="none" x="8601" y="13851" width="1266" height="928"/>
        <path fill="rgb(255,255,255)" stroke="none" d="M 8601,14777 C 8827,14441 9086,14134 9378,13852 9303,14044 9173,14205 9046,14410 9337,14291 9591,14170 9865,14101 9473,14378 9046,14589 8601,14777 Z"/>
       </g>
      </g>
     </g>
    </g>
   </g>
  </g>
 </g>
</svg>